<svg width="18" height="18" viewBox="0 0 18 18" fill="none" xmlns="http://www.w3.org/2000/svg">
<rect width="18" height="18" rx="3.6" fill="#25D366"/>
<path d="M11.2491 9.99009C11.1141 9.94509 10.5291 9.63009 10.3941 9.58509C10.2591 9.54009 10.2141 9.54009 10.1241 9.63009C10.0003 9.80393 9.86499 9.9693 9.71912 10.1251C9.62912 10.2151 9.58412 10.2151 9.44912 10.1701C9.07292 10.0435 8.73316 9.82725 8.45912 9.54009C8.18012 9.30221 7.95075 9.01168 7.78412 8.68509C7.69412 8.55009 7.78412 8.50509 7.82912 8.41509C7.89982 8.34932 7.96046 8.27351 8.00912 8.19009C8.05412 8.10009 8.09912 8.05509 8.14412 7.96509C8.18912 7.87509 8.14412 7.83009 8.14412 7.74009C8.14412 7.65009 7.87412 7.06509 7.73912 6.84009C7.60412 6.61509 7.55912 6.61509 7.46912 6.61509H7.24412C7.12621 6.62035 7.01424 6.66834 6.92912 6.75009C6.78118 6.87773 6.6639 7.03705 6.58599 7.21624C6.50809 7.39542 6.47156 7.58985 6.47912 7.78509C6.52035 8.24513 6.69209 8.68382 6.97412 9.04959C7.4853 9.85946 8.22199 10.5023 9.09362 10.8991C9.40862 11.0341 9.63362 11.0791 9.81362 11.1691C10.0607 11.2484 10.3239 11.2638 10.5786 11.2141C10.922 11.1224 11.2237 10.916 11.4336 10.6291C11.4905 10.4392 11.5208 10.2423 11.5236 10.0441C11.4317 10.0449 11.3403 10.0297 11.2536 9.99909L11.2491 9.99009ZM8.99912 13.0501C8.25156 13.0591 7.51673 12.8563 6.87962 12.4651L6.74462 12.3751L5.16512 12.7801L5.57462 11.2501L5.48462 11.1151C5.07326 10.4515 4.85509 9.68634 4.85462 8.90559C4.85373 8.08462 5.09642 7.28183 5.55197 6.59884C6.00753 5.91585 6.65547 5.38337 7.41378 5.06878C8.1721 4.7542 9.0067 4.67165 9.81194 4.8316C10.6172 4.99155 11.3569 5.38679 11.9374 5.96731C12.5179 6.54783 12.9132 7.28752 13.0731 8.09277C13.2331 8.89802 13.1505 9.73261 12.8359 10.4909C12.5213 11.2492 11.9889 11.8972 11.3059 12.3527C10.6229 12.8083 9.82009 13.051 8.99912 13.0501ZM12.5136 5.43609C11.5687 4.5253 10.3114 4.01015 8.99912 3.99609C7.6863 3.99609 6.42724 4.51761 5.49894 5.44591C4.57063 6.37422 4.04912 7.63327 4.04912 8.94609C4.0489 9.81801 4.28196 10.6741 4.72412 11.4256L3.99512 14.0041L6.65462 13.3291C7.38695 13.7279 8.21038 13.9295 9.04412 13.9141C9.69416 13.9141 10.3378 13.7861 10.9384 13.5373C11.539 13.2885 12.0846 12.9239 12.5443 12.4643C13.0039 12.0046 13.3686 11.4589 13.6173 10.8584C13.8661 10.2578 13.9941 9.61414 13.9941 8.96409C13.9622 7.64588 13.4297 6.38926 12.5046 5.44959" fill="#FBFBFD"/>
</svg>
